<?xml version="1.0" encoding="utf-8"?>
<!-- Generator: Adobe Illustrator 25.4.1, SVG Export Plug-In . SVG Version: 6.00 Build 0)  -->
<svg version="1.1" id="Layer_1" xmlns="http://www.w3.org/2000/svg" xmlns:xlink="http://www.w3.org/1999/xlink" x="0px" y="0px"
	 viewBox="0 0 24.8 35" style="enable-background:new 0 0 24.8 35;" xml:space="preserve">
<style type="text/css">
	.st0{fill-rule:evenodd;clip-rule:evenodd;fill:#FFFFFF;}
</style>
<path class="st0" d="M23.9,13l-4.5-2.7l0-5.5c0-0.6-0.3-1.2-0.9-1.6l-5.1-3C13.1,0.1,12.8,0,12.5,0c-0.3,0-0.6,0.1-0.9,0.2L0.9,6.5
	C0.3,6.8,0,7.4,0,8v19c0,0.6,0.3,1.2,0.9,1.6l10.6,6.2c0.3,0.2,0.6,0.2,0.9,0.2c0.3,0,0.6-0.1,0.9-0.2l10.5-6.2
	c0.6-0.3,0.9-0.9,0.9-1.6V14.6C24.8,13.9,24.4,13.3,23.9,13z M5.6,24.7v3.4l-3.1-1.8V23L5.6,24.7z M14.9,14.1l2.9-1.6l4.5,2.6V20
	l-3,1.7v-5L14.9,14.1z M12.3,15.5l4.4,2.6v5l-4.3,2.4L2.5,20v-3.7l4.3,2.2L12.3,15.5z M16.7,10l-9.9,5.5l-4.3-2.2V8.5l10-5.7
	l4.2,2.5L16.7,10z M8.1,26.2l3.5,2c0.3,0.2,0.6,0.2,0.9,0.2c0.3,0,0.6-0.1,0.9-0.2l8.9-5.1v3.5l-9.8,5.7l-4.4-2.5V26.2z"/>
</svg>
