<svg xmlns="http://www.w3.org/2000/svg" viewBox="0 0 100 100"><defs><style>.cls-1{fill:#fff;}</style></defs><g id="Layer_2" data-name="Layer 2"><g id="Layer_1-2" data-name="Layer 1"><path class="cls-1" d="M50,0a50,50,0,1,0,50,50A50,50,0,0,0,50,0ZM24.67,51.68l.22-.33L37.89,31a.44.44,0,0,1,.78.05c2.18,4.87,4,10.93,3.17,14.7a23.14,23.14,0,0,1-2.55,5.6c-.15.28-.32.56-.49.82a.43.43,0,0,1-.37.2H25.05A.45.45,0,0,1,24.67,51.68Zm58,7a.47.47,0,0,1-.28.42c-1,.43-4.45,2-5.89,4-3.65,5.1-6.45,12.37-12.7,12.37H37.72A16.75,16.75,0,0,1,21,58.71v-.3a.45.45,0,0,1,.45-.45H36a.49.49,0,0,1,.47.55A5,5,0,0,0,37,61.3a5.11,5.11,0,0,0,4.58,2.85h7.19V58.53H41.63a.46.46,0,0,1-.37-.72l.26-.38c.67-1,1.63-2.44,2.59-4.13a33.2,33.2,0,0,0,1.79-3.58,5.52,5.52,0,0,0,.27-.67c.14-.39.28-.75.38-1.12s.19-.63.27-.93a14.59,14.59,0,0,0,.35-3.28,12.52,12.52,0,0,0-.07-1.36c0-.49-.08-1-.14-1.46s-.12-.86-.2-1.31c-.1-.65-.25-1.3-.41-2l-.06-.25c-.12-.44-.22-.87-.37-1.32-.4-1.4-.87-2.77-1.36-4-.18-.5-.39-1-.59-1.48-.31-.73-.62-1.4-.9-2-.14-.29-.27-.55-.39-.82s-.28-.61-.42-.89-.23-.43-.31-.64l-.88-1.62a.29.29,0,0,1,.33-.42l5.49,1.49h0l.72.2.8.23.29.08V22.86A2.85,2.85,0,0,1,51.57,20a2.79,2.79,0,0,1,2,.84,2.87,2.87,0,0,1,.82,2v4.85l.59.16.13.07.61.46c.21.17.43.37.7.57.53.43,1.16,1,1.85,1.61.19.16.37.33.53.49A39.21,39.21,0,0,1,61.65,34c.27.3.53.61.8.93s.55.65.8,1,.67.88,1,1.34c.14.22.31.45.45.67.39.59.73,1.2,1.06,1.81.14.29.28.6.41.9A13.14,13.14,0,0,1,67,43.07a2.71,2.71,0,0,1,.12.55v0a6.37,6.37,0,0,1,.11.78A8.2,8.2,0,0,1,67.05,47a10.69,10.69,0,0,1-.3,1.07,10.53,10.53,0,0,1-.41,1.06,14.49,14.49,0,0,1-1.1,2.1c-.14.24-.3.51-.47.75l-.53.75c-.22.31-.47.63-.71.92a10,10,0,0,1-.7.88c-.34.4-.67.79-1,1.16s-.43.48-.66.71-.44.46-.65.67-.63.61-.87.83l-.57.52a.46.46,0,0,1-.3.11H54.39v5.62H59.9a5.16,5.16,0,0,0,3.35-1.24,41,41,0,0,0,3.41-3.35.38.38,0,0,1,.21-.13L82.08,55a.45.45,0,0,1,.57.44Z"/></g></g></svg>